<?xml version="1.0" standalone="no"?>
<!DOCTYPE svg PUBLIC "-//W3C//DTD SVG 20010904//EN"
 "http://www.w3.org/TR/2001/REC-SVG-20010904/DTD/svg10.dtd">
<svg version="1.0" xmlns="http://www.w3.org/2000/svg"
 width="268.000000pt" height="268.000000pt" viewBox="0 0 268.000000 268.000000"
 preserveAspectRatio="xMidYMid meet">
<metadata>
Created by potrace 1.14, written by Peter Selinger 2001-2017
</metadata>
<g transform="translate(0.000000,268.000000) scale(0.100000,-0.100000)"
fill="#000000" stroke="none">
<path d="M1159 2506 c-30 -7 -76 -23 -102 -35 -52 -25 -121 -98 -131 -137 -4
-14 -22 -38 -40 -54 -40 -35 -57 -89 -57 -178 -1 -76 3 -100 34 -227 21 -86
22 -88 25 -45 11 191 34 323 64 362 12 16 18 15 82 -17 115 -56 189 -70 366
-70 114 1 171 6 216 18 34 9 64 17 67 17 12 0 39 -132 50 -243 l13 -122 17 65
c27 104 37 178 38 287 1 89 -2 108 -24 157 -50 109 -177 195 -325 222 -93 16
-217 16 -293 0z"/>
<path d="M1018 1969 c-21 -11 -38 -24 -38 -29 0 -6 14 -3 32 6 24 13 51 15
120 12 64 -3 88 -1 88 8 0 18 -25 24 -98 24 -47 -1 -78 -7 -104 -21z"/>
<path d="M1437 1979 c-25 -15 -10 -32 22 -24 46 12 151 6 183 -9 27 -14 29
-14 17 0 -25 30 -68 44 -136 44 -37 0 -76 -5 -86 -11z"/>
<path d="M1068 1899 c-21 -12 -24 -69 -6 -87 7 -7 21 -12 33 -12 30 0 45 19
45 57 0 44 -34 64 -72 42z m55 -35 c-3 -8 -9 -14 -13 -14 -14 0 -22 20 -16 37
5 12 9 13 21 3 7 -6 11 -18 8 -26z"/>
<path d="M1512 1894 c-54 -37 1 -120 57 -85 20 13 16 73 -5 88 -22 16 -25 16
-52 -3z m50 -36 c-16 -16 -37 4 -28 28 6 16 8 16 23 1 13 -13 15 -19 5 -29z"/>
<path d="M1282 1147 c-34 -35 -41 -67 -17 -87 8 -7 12 -22 9 -38 -7 -44 -34
-349 -34 -392 0 -22 -4 -40 -10 -40 -5 0 -10 9 -10 21 0 11 -22 140 -50 286
-27 146 -50 267 -50 269 0 2 -74 4 -165 4 -230 0 -235 -3 -319 -207 -126 -305
-246 -760 -246 -935 l0 -28 139 0 139 0 7 38 c12 66 74 315 94 377 l19 60 1
-237 1 -238 530 0 530 0 2 267 3 268 47 -170 c26 -93 55 -204 63 -245 8 -41
17 -85 20 -98 5 -22 8 -22 146 -22 l140 0 -6 63 c-25 250 -115 582 -242 897
-42 106 -62 143 -93 173 l-39 37 -185 0 -184 0 -21 -117 c-74 -404 -89 -476
-94 -463 -3 8 -13 115 -23 238 -13 171 -15 225 -6 234 21 21 13 53 -21 86 -18
18 -35 32 -38 32 -3 0 -19 -15 -37 -33z"/>
</g>
</svg>
